<svg xmlns="http://www.w3.org/2000/svg" viewBox="0 0 48 48"><path fill="#0c0c0c" d="M10.144 0h27.712C43.458 0 48 4.542 48 10.144v27.712C48 43.458 43.458 48 37.856 48H10.144C4.542 48 0 43.458 0 37.856V10.144C0 4.542 4.542 0 10.144 0z"/><path fill="#fff" d="M19 25c-.827 0-1.5-.673-1.5-1.5S18.173 22 19 22s1.5.673 1.5 1.5S19.827 25 19 25zm0-2a.5.5 0 1 0 0 1 .5.5 0 0 0 0-1zm5 2c-.827 0-1.5-.673-1.5-1.5S23.173 22 24 22s1.5.673 1.5 1.5S24.827 25 24 25zm0-2a.5.5 0 1 0 0 1 .5.5 0 0 0 0-1zm-10 7c-.827 0-1.5-.673-1.5-1.5S13.173 27 14 27s1.5.673 1.5 1.5S14.827 30 14 30zm0-2a.5.5 0 1 0 0 1 .5.5 0 0 0 0-1zm5 2c-.827 0-1.5-.673-1.5-1.5S18.173 27 19 27s1.5.673 1.5 1.5S19.827 30 19 30zm0-2a.5.5 0 1 0 0 1 .5.5 0 0 0 0-1zm-5 7c-.827 0-1.5-.673-1.5-1.5S13.173 32 14 32s1.5.673 1.5 1.5S14.827 35 14 35zm0-2a.5.5 0 1 0 0 1 .5.5 0 0 0 0-1zm10 2c-.827 0-1.5-.673-1.5-1.5S23.173 32 24 32s1.5.673 1.5 1.5S24.827 35 24 35zm0-2a.5.5 0 1 0 0 1 .5.5 0 0 0 0-1zm10-3c-.827 0-1.5-.673-1.5-1.5S33.173 27 34 27s1.5.673 1.5 1.5S34.827 30 34 30zm0-2a.5.5 0 1 0 0 1 .5.5 0 0 0 0-1zm0-3c-.827 0-1.5-.673-1.5-1.5S33.173 22 34 22s1.5.673 1.5 1.5S34.827 25 34 25zm0-2a.5.5 0 1 0 0 1 .5.5 0 0 0 0-1z"/><path fill="#fff" d="M36 38H12a2.503 2.503 0 0 1-2.5-2.5v-16a.5.5 0 0 1 .5-.5h28a.5.5 0 0 1 .5.5v16c0 1.378-1.122 2.5-2.5 2.5zM10.5 20v15.5c0 .827.673 1.5 1.5 1.5h24c.827 0 1.5-.673 1.5-1.5V20h-27z"/><path fill="#fff" d="M38 20H10a.5.5 0 0 1-.5-.5v-4c0-1.378 1.122-2.5 2.5-2.5h3a.5.5 0 0 1 0 1h-3c-.827 0-1.5.673-1.5 1.5V19h27v-3.5c0-.827-.673-1.5-1.5-1.5h-3a.5.5 0 0 1 0-1h3c1.378 0 2.5 1.122 2.5 2.5v4a.5.5 0 0 1-.5.5z"/><path fill="#fff" d="M31 14H17a.5.5 0 0 1 0-1h14a.5.5 0 0 1 0 1zm-2.354 10.561a.502.502 0 0 1-.354-.146l-.707-.707a.5.5 0 0 1 .707-.707l.354.354 1.061-1.061a.5.5 0 0 1 .707.707L29 24.414a.5.5 0 0 1-.354.147zm0 5.146a.502.502 0 0 1-.354-.146l-.707-.707a.5.5 0 0 1 .707-.707l.354.354 1.061-1.061a.5.5 0 0 1 .707.707L29 29.561a.502.502 0 0 1-.354.146zm-5 0a.502.502 0 0 1-.354-.146l-.707-.707a.5.5 0 0 1 .707-.707l.354.354 1.061-1.061a.5.5 0 0 1 .707.707L24 29.561a.502.502 0 0 1-.354.146zm-5 5a.502.502 0 0 1-.354-.146l-.707-.707a.5.5 0 0 1 .707-.707l.354.354 1.061-1.061a.5.5 0 0 1 .707.707L19 34.561a.502.502 0 0 1-.354.146z"/><path fill="#fff" d="M16 17c-.827 0-1.5-.673-1.5-1.5v-4c0-.827.673-1.5 1.5-1.5s1.5.673 1.5 1.5v4c0 .827-.673 1.5-1.5 1.5zm0-6a.5.5 0 0 0-.5.5v4a.5.5 0 0 0 1 0v-4a.5.5 0 0 0-.5-.5zm16 6c-.827 0-1.5-.673-1.5-1.5v-4c0-.827.673-1.5 1.5-1.5s1.5.673 1.5 1.5v4c0 .827-.673 1.5-1.5 1.5zm0-6a.5.5 0 0 0-.5.5v4a.5.5 0 0 0 1 0v-4a.5.5 0 0 0-.5-.5z"/></svg>